<mxfile host="Electron" agent="Mozilla/5.0 (Windows NT 10.0; Win64; x64) AppleWebKit/537.36 (KHTML, like Gecko) draw.io/28.1.2 Chrome/138.0.7204.243 Electron/37.4.0 Safari/537.36" version="28.1.2">
  <diagram name="Page-1" id="s9EJyZMEFwhjkPpfDu9-">
    <mxGraphModel dx="692" dy="501" grid="1" gridSize="10" guides="1" tooltips="1" connect="1" arrows="1" fold="1" page="1" pageScale="1" pageWidth="850" pageHeight="1100" math="0" shadow="0">
      <root>
        <mxCell id="0" />
        <mxCell id="1" parent="0" />
        <mxCell id="C3BFWkX5ecgsuufXOQ3z-1" value="" style="edgeStyle=orthogonalEdgeStyle;rounded=0;orthogonalLoop=1;jettySize=auto;html=1;" edge="1" parent="1" source="C3BFWkX5ecgsuufXOQ3z-2" target="C3BFWkX5ecgsuufXOQ3z-4">
          <mxGeometry relative="1" as="geometry" />
        </mxCell>
        <mxCell id="C3BFWkX5ecgsuufXOQ3z-2" value="mulai&amp;nbsp;" style="ellipse;whiteSpace=wrap;html=1;" vertex="1" parent="1">
          <mxGeometry x="350" y="25" width="80" height="40" as="geometry" />
        </mxCell>
        <mxCell id="C3BFWkX5ecgsuufXOQ3z-3" value="" style="edgeStyle=orthogonalEdgeStyle;rounded=0;orthogonalLoop=1;jettySize=auto;html=1;" edge="1" parent="1" source="C3BFWkX5ecgsuufXOQ3z-4" target="C3BFWkX5ecgsuufXOQ3z-7">
          <mxGeometry relative="1" as="geometry" />
        </mxCell>
        <mxCell id="C3BFWkX5ecgsuufXOQ3z-4" value="input nama dan nim&amp;nbsp;" style="shape=parallelogram;perimeter=parallelogramPerimeter;whiteSpace=wrap;html=1;fixedSize=1;" vertex="1" parent="1">
          <mxGeometry x="320" y="85" width="140" height="60" as="geometry" />
        </mxCell>
        <mxCell id="C3BFWkX5ecgsuufXOQ3z-5" value="&lt;font style=&quot;font-size: 14px;&quot;&gt;salah&lt;/font&gt;" style="edgeStyle=orthogonalEdgeStyle;rounded=0;orthogonalLoop=1;jettySize=auto;html=1;" edge="1" parent="1">
          <mxGeometry x="0.1425" y="-20" relative="1" as="geometry">
            <mxPoint x="330" y="215" as="sourcePoint" />
            <mxPoint x="219.9999999999999" y="245" as="targetPoint" />
            <Array as="points">
              <mxPoint x="330" y="215" />
              <mxPoint x="220" y="215" />
            </Array>
            <mxPoint as="offset" />
          </mxGeometry>
        </mxCell>
        <mxCell id="C3BFWkX5ecgsuufXOQ3z-6" value="" style="edgeStyle=orthogonalEdgeStyle;rounded=0;orthogonalLoop=1;jettySize=auto;html=1;" edge="1" parent="1" source="C3BFWkX5ecgsuufXOQ3z-7">
          <mxGeometry relative="1" as="geometry">
            <mxPoint x="540" y="245" as="targetPoint" />
            <Array as="points">
              <mxPoint x="540" y="215" />
            </Array>
          </mxGeometry>
        </mxCell>
        <mxCell id="C3BFWkX5ecgsuufXOQ3z-7" value="apakah nama dan nim benar" style="rhombus;whiteSpace=wrap;html=1;" vertex="1" parent="1">
          <mxGeometry x="330" y="165" width="120" height="100" as="geometry" />
        </mxCell>
        <mxCell id="C3BFWkX5ecgsuufXOQ3z-8" value="" style="edgeStyle=orthogonalEdgeStyle;rounded=0;orthogonalLoop=1;jettySize=auto;html=1;" edge="1" parent="1">
          <mxGeometry relative="1" as="geometry">
            <mxPoint x="540" y="335" as="sourcePoint" />
            <mxPoint x="540" y="325" as="targetPoint" />
            <Array as="points">
              <mxPoint x="540" y="305" />
              <mxPoint x="540" y="305" />
            </Array>
          </mxGeometry>
        </mxCell>
        <mxCell id="C3BFWkX5ecgsuufXOQ3z-9" value="benar" style="text;html=1;align=center;verticalAlign=middle;resizable=0;points=[];autosize=1;strokeColor=none;fillColor=none;" vertex="1" parent="1">
          <mxGeometry x="485" y="185" width="50" height="30" as="geometry" />
        </mxCell>
        <mxCell id="C3BFWkX5ecgsuufXOQ3z-10" value="" style="edgeStyle=orthogonalEdgeStyle;rounded=0;orthogonalLoop=1;jettySize=auto;html=1;" edge="1" parent="1" source="C3BFWkX5ecgsuufXOQ3z-11" target="C3BFWkX5ecgsuufXOQ3z-16">
          <mxGeometry relative="1" as="geometry">
            <Array as="points">
              <mxPoint x="540" y="395" />
              <mxPoint x="540" y="395" />
            </Array>
          </mxGeometry>
        </mxCell>
        <mxCell id="C3BFWkX5ecgsuufXOQ3z-11" value="output pilih metode pembayaran" style="shape=parallelogram;perimeter=parallelogramPerimeter;whiteSpace=wrap;html=1;fixedSize=1;" vertex="1" parent="1">
          <mxGeometry x="470" y="325" width="120" height="60" as="geometry" />
        </mxCell>
        <mxCell id="C3BFWkX5ecgsuufXOQ3z-12" style="edgeStyle=orthogonalEdgeStyle;rounded=0;orthogonalLoop=1;jettySize=auto;html=1;entryX=0.238;entryY=0.12;entryDx=0;entryDy=0;entryPerimeter=0;" edge="1" parent="1">
          <mxGeometry relative="1" as="geometry">
            <mxPoint x="308.55999999999995" y="1050.8" as="targetPoint" />
            <mxPoint x="200.0526315789475" y="289.2" as="sourcePoint" />
            <Array as="points">
              <mxPoint x="200" y="1037.2" />
              <mxPoint x="309" y="1037.2" />
            </Array>
          </mxGeometry>
        </mxCell>
        <mxCell id="C3BFWkX5ecgsuufXOQ3z-13" value="output login gagal&amp;nbsp;" style="shape=parallelogram;perimeter=parallelogramPerimeter;whiteSpace=wrap;html=1;fixedSize=1;" vertex="1" parent="1">
          <mxGeometry x="160" y="243" width="120" height="60" as="geometry" />
        </mxCell>
        <mxCell id="C3BFWkX5ecgsuufXOQ3z-14" value="output login berhasil&amp;nbsp;" style="shape=parallelogram;perimeter=parallelogramPerimeter;whiteSpace=wrap;html=1;fixedSize=1;" vertex="1" parent="1">
          <mxGeometry x="470" y="243" width="140" height="60" as="geometry" />
        </mxCell>
        <mxCell id="C3BFWkX5ecgsuufXOQ3z-15" value="" style="edgeStyle=orthogonalEdgeStyle;rounded=0;orthogonalLoop=1;jettySize=auto;html=1;" edge="1" parent="1" source="C3BFWkX5ecgsuufXOQ3z-16" target="C3BFWkX5ecgsuufXOQ3z-18">
          <mxGeometry relative="1" as="geometry" />
        </mxCell>
        <mxCell id="C3BFWkX5ecgsuufXOQ3z-16" value="output&amp;nbsp;&lt;div&gt;&lt;span style=&quot;background-color: transparent; color: light-dark(rgb(0, 0, 0), rgb(255, 255, 255));&quot;&gt;1.lunas (admin1%)&lt;/span&gt;&lt;div&gt;&lt;div&gt;2.cicilan 2x (admin5%)&lt;/div&gt;&lt;div&gt;3.cicilan 4x (admin 8%)&lt;/div&gt;&lt;div&gt;4.cicilan 6x (admin 12%)&lt;/div&gt;&lt;/div&gt;&lt;/div&gt;" style="shape=parallelogram;perimeter=parallelogramPerimeter;whiteSpace=wrap;html=1;fixedSize=1;" vertex="1" parent="1">
          <mxGeometry x="450" y="405" width="180" height="110" as="geometry" />
        </mxCell>
        <mxCell id="C3BFWkX5ecgsuufXOQ3z-17" style="edgeStyle=orthogonalEdgeStyle;rounded=0;orthogonalLoop=1;jettySize=auto;html=1;" edge="1" parent="1" source="C3BFWkX5ecgsuufXOQ3z-18">
          <mxGeometry relative="1" as="geometry">
            <mxPoint x="460" y="615" as="targetPoint" />
            <Array as="points">
              <mxPoint x="540" y="605" />
              <mxPoint x="460" y="605" />
            </Array>
          </mxGeometry>
        </mxCell>
        <mxCell id="C3BFWkX5ecgsuufXOQ3z-18" value="input pilihan&amp;nbsp;" style="shape=parallelogram;perimeter=parallelogramPerimeter;whiteSpace=wrap;html=1;fixedSize=1;" vertex="1" parent="1">
          <mxGeometry x="480" y="530" width="120" height="60" as="geometry" />
        </mxCell>
        <mxCell id="C3BFWkX5ecgsuufXOQ3z-19" value="" style="edgeStyle=orthogonalEdgeStyle;rounded=0;orthogonalLoop=1;jettySize=auto;html=1;" edge="1" parent="1">
          <mxGeometry relative="1" as="geometry">
            <mxPoint x="405" y="675" as="sourcePoint" />
            <mxPoint x="291.5" y="692.51" as="targetPoint" />
            <Array as="points">
              <mxPoint x="292" y="675" />
            </Array>
          </mxGeometry>
        </mxCell>
        <mxCell id="C3BFWkX5ecgsuufXOQ3z-20" value="" style="edgeStyle=orthogonalEdgeStyle;rounded=0;orthogonalLoop=1;jettySize=auto;html=1;" edge="1" parent="1">
          <mxGeometry relative="1" as="geometry">
            <mxPoint x="499.99434782608705" y="674.9965217391305" as="sourcePoint" />
            <mxPoint x="619.9965217391307" y="705.04" as="targetPoint" />
            <Array as="points">
              <mxPoint x="620" y="675.04" />
            </Array>
          </mxGeometry>
        </mxCell>
        <mxCell id="C3BFWkX5ecgsuufXOQ3z-21" value="apakah 1,2,3,4" style="rhombus;whiteSpace=wrap;html=1;" vertex="1" parent="1">
          <mxGeometry x="405" y="625" width="105" height="100" as="geometry" />
        </mxCell>
        <mxCell id="C3BFWkX5ecgsuufXOQ3z-22" style="edgeStyle=orthogonalEdgeStyle;rounded=0;orthogonalLoop=1;jettySize=auto;html=1;" edge="1" parent="1" source="C3BFWkX5ecgsuufXOQ3z-23">
          <mxGeometry relative="1" as="geometry">
            <mxPoint x="340" y="1045" as="targetPoint" />
            <Array as="points">
              <mxPoint x="290" y="1025" />
              <mxPoint x="340" y="1025" />
            </Array>
          </mxGeometry>
        </mxCell>
        <mxCell id="C3BFWkX5ecgsuufXOQ3z-23" value="output pilih 1 sampai 4 saja" style="shape=parallelogram;perimeter=parallelogramPerimeter;whiteSpace=wrap;html=1;fixedSize=1;" vertex="1" parent="1">
          <mxGeometry x="230" y="700" width="120" height="60" as="geometry" />
        </mxCell>
        <mxCell id="C3BFWkX5ecgsuufXOQ3z-24" value="" style="edgeStyle=orthogonalEdgeStyle;rounded=0;orthogonalLoop=1;jettySize=auto;html=1;" edge="1" parent="1" source="C3BFWkX5ecgsuufXOQ3z-25" target="C3BFWkX5ecgsuufXOQ3z-29">
          <mxGeometry relative="1" as="geometry" />
        </mxCell>
        <mxCell id="C3BFWkX5ecgsuufXOQ3z-25" value="total = (ukt*admin)&amp;nbsp;" style="whiteSpace=wrap;html=1;" vertex="1" parent="1">
          <mxGeometry x="560" y="705" width="120" height="60" as="geometry" />
        </mxCell>
        <mxCell id="C3BFWkX5ecgsuufXOQ3z-26" value="salah" style="text;html=1;align=center;verticalAlign=middle;resizable=0;points=[];autosize=1;strokeColor=none;fillColor=none;" vertex="1" parent="1">
          <mxGeometry x="300" y="645" width="50" height="30" as="geometry" />
        </mxCell>
        <mxCell id="C3BFWkX5ecgsuufXOQ3z-27" value="benar" style="text;html=1;align=center;verticalAlign=middle;resizable=0;points=[];autosize=1;strokeColor=none;fillColor=none;" vertex="1" parent="1">
          <mxGeometry x="570" y="655" width="50" height="30" as="geometry" />
        </mxCell>
        <mxCell id="C3BFWkX5ecgsuufXOQ3z-28" value="" style="edgeStyle=orthogonalEdgeStyle;rounded=0;orthogonalLoop=1;jettySize=auto;html=1;" edge="1" parent="1" source="C3BFWkX5ecgsuufXOQ3z-29" target="C3BFWkX5ecgsuufXOQ3z-32">
          <mxGeometry relative="1" as="geometry">
            <Array as="points">
              <mxPoint x="620" y="855" />
              <mxPoint x="510" y="855" />
            </Array>
          </mxGeometry>
        </mxCell>
        <mxCell id="C3BFWkX5ecgsuufXOQ3z-29" value="output total bayar : Rp ....&amp;nbsp;" style="shape=parallelogram;perimeter=parallelogramPerimeter;whiteSpace=wrap;html=1;fixedSize=1;" vertex="1" parent="1">
          <mxGeometry x="560" y="785" width="120" height="60" as="geometry" />
        </mxCell>
        <mxCell id="C3BFWkX5ecgsuufXOQ3z-30" value="" style="edgeStyle=orthogonalEdgeStyle;rounded=0;orthogonalLoop=1;jettySize=auto;html=1;" edge="1" parent="1" source="C3BFWkX5ecgsuufXOQ3z-32" target="C3BFWkX5ecgsuufXOQ3z-34">
          <mxGeometry relative="1" as="geometry">
            <Array as="points">
              <mxPoint x="640" y="905" />
            </Array>
          </mxGeometry>
        </mxCell>
        <mxCell id="C3BFWkX5ecgsuufXOQ3z-31" value="" style="edgeStyle=orthogonalEdgeStyle;rounded=0;orthogonalLoop=1;jettySize=auto;html=1;exitX=0;exitY=0.5;exitDx=0;exitDy=0;" edge="1" parent="1" source="C3BFWkX5ecgsuufXOQ3z-32">
          <mxGeometry relative="1" as="geometry">
            <mxPoint x="470.0000000000002" y="884.9999999999998" as="sourcePoint" />
            <mxPoint x="410" y="925" as="targetPoint" />
            <Array as="points">
              <mxPoint x="410" y="905" />
            </Array>
          </mxGeometry>
        </mxCell>
        <mxCell id="C3BFWkX5ecgsuufXOQ3z-32" value="cicilan &amp;gt;1" style="rhombus;whiteSpace=wrap;html=1;" vertex="1" parent="1">
          <mxGeometry x="470" y="865" width="80" height="80" as="geometry" />
        </mxCell>
        <mxCell id="C3BFWkX5ecgsuufXOQ3z-33" style="edgeStyle=orthogonalEdgeStyle;rounded=0;orthogonalLoop=1;jettySize=auto;html=1;" edge="1" parent="1" source="C3BFWkX5ecgsuufXOQ3z-34">
          <mxGeometry relative="1" as="geometry">
            <mxPoint x="380" y="1055" as="targetPoint" />
            <Array as="points">
              <mxPoint x="630" y="1025" />
              <mxPoint x="380" y="1025" />
            </Array>
          </mxGeometry>
        </mxCell>
        <mxCell id="C3BFWkX5ecgsuufXOQ3z-34" value="output&amp;nbsp;&lt;div&gt;jumlah cicilan:... kali cicilan&amp;nbsp;&lt;/div&gt;&lt;div&gt;besar cicilan: Rp..&lt;/div&gt;" style="shape=parallelogram;perimeter=parallelogramPerimeter;whiteSpace=wrap;html=1;fixedSize=1;" vertex="1" parent="1">
          <mxGeometry x="570" y="925" width="120" height="60" as="geometry" />
        </mxCell>
        <mxCell id="C3BFWkX5ecgsuufXOQ3z-35" value="" style="edgeStyle=orthogonalEdgeStyle;rounded=0;orthogonalLoop=1;jettySize=auto;html=1;" edge="1" parent="1" source="C3BFWkX5ecgsuufXOQ3z-36">
          <mxGeometry relative="1" as="geometry">
            <mxPoint x="360" y="1045" as="targetPoint" />
          </mxGeometry>
        </mxCell>
        <mxCell id="C3BFWkX5ecgsuufXOQ3z-36" value="output&lt;div&gt;pembayaran lunas&lt;/div&gt;" style="shape=parallelogram;perimeter=parallelogramPerimeter;whiteSpace=wrap;html=1;fixedSize=1;" vertex="1" parent="1">
          <mxGeometry x="350" y="925" width="120" height="60" as="geometry" />
        </mxCell>
        <mxCell id="C3BFWkX5ecgsuufXOQ3z-37" value="salah" style="text;html=1;align=center;verticalAlign=middle;resizable=0;points=[];autosize=1;strokeColor=none;fillColor=none;" vertex="1" parent="1">
          <mxGeometry x="405" y="873" width="50" height="30" as="geometry" />
        </mxCell>
        <mxCell id="C3BFWkX5ecgsuufXOQ3z-38" value="benar" style="text;html=1;align=center;verticalAlign=middle;resizable=0;points=[];autosize=1;strokeColor=none;fillColor=none;" vertex="1" parent="1">
          <mxGeometry x="600" y="873" width="50" height="30" as="geometry" />
        </mxCell>
        <mxCell id="C3BFWkX5ecgsuufXOQ3z-39" value="SELESAI" style="ellipse;whiteSpace=wrap;html=1;" vertex="1" parent="1">
          <mxGeometry x="280" y="1055" width="120" height="80" as="geometry" />
        </mxCell>
      </root>
    </mxGraphModel>
  </diagram>
</mxfile>
